# xmcd
#
# Track frame offsets:
#	150
#	12096
#	24502
#	40208
#	52137
#	70351
#	85883
#	100994
#	117755
#	134347
#	153700
#	168505
#	187738
#	198380
#	211850
#	225227
#	237833
#	252306
#	267588
#	284322
#
# Disc length: 3988 seconds
#
# Revision: 0
# Processed by: cddbd v1.5.2PL0 Copyright (c) Steve Scherf et al.
# Submitted via: audiograbber 1.83.01
#
DISCID=160f9214
DTITLE=Peter Alexander - Das Goldene Schlageralbum
DYEAR=1979
DGENRE=Schlager
TTITLE0=Komm Und Bedien Dich (Gli Occhi Miei)
TTITLE1=Oh Lady Mary
TTITLE2=Feierabend
TTITLE3=Liebesleid
TTITLE4=Die Kirschen In Nachbars Garten
TTITLE5=Unser T‰gliches Brot Ist Die Liebe
TTITLE6=Immer
TTITLE7=Pedro (Mandolinen Um Mitternacht)
TTITLE8=Schaukellied
TTITLE9=Bei Uns Zu Haus
TTITLE10=Delilah
TTITLE11=Die Kleine Kneipe
TTITLE12=Ich Z‰hle T‰glich Meine Sorgen
TTITLE13=So Richtig Nett Ist's Nur Im Bett
TTITLE14=Moderne Romanzen
TTITLE15=Teure Heimat (Nabucco)
TTITLE16=Hier Ist Ein Mensch
TTITLE17=Einsamer Abend Ohne Dich
TTITLE18=Kleine Straﬂe In Der Groﬂen Stadt
TTITLE19=Der Letzte Walzer
EXTD=
EXTT0=
EXTT1=
EXTT2=
EXTT3=
EXTT4=
EXTT5=
EXTT6=
EXTT7=
EXTT8=
EXTT9=
EXTT10=
EXTT11=
EXTT12=
EXTT13=
EXTT14=
EXTT15=
EXTT16=
EXTT17=
EXTT18=
EXTT19=
PLAYORDER=
